<?xml version="1.0" encoding="UTF-8" standalone="no"?>
<!-- Created with Inkscape (http://www.inkscape.org/) -->

<svg
   xmlns:dc="http://purl.org/dc/elements/1.1/"
   xmlns:cc="http://creativecommons.org/ns#"
   xmlns:rdf="http://www.w3.org/1999/02/22-rdf-syntax-ns#"
   xmlns:svg="http://www.w3.org/2000/svg"
   xmlns="http://www.w3.org/2000/svg"
   xmlns:xlink="http://www.w3.org/1999/xlink"
   xmlns:sodipodi="http://sodipodi.sourceforge.net/DTD/sodipodi-0.dtd"
   xmlns:inkscape="http://www.inkscape.org/namespaces/inkscape"
   width="37mm"
   height="37mm"
   viewBox="0 0 37 37"
   version="1.1"
   id="svg1148"
   inkscape:version="0.92.4 (5da689c313, 2019-01-14)"
   sodipodi:docname="die-erde-final.svg">
  <defs
     id="defs1142">
    <path
       style="color:#000000;font-style:normal;font-variant:normal;font-weight:normal;font-stretch:normal;font-size:medium;line-height:normal;font-family:sans-serif;font-variant-ligatures:normal;font-variant-position:normal;font-variant-caps:normal;font-variant-numeric:normal;font-variant-alternates:normal;font-feature-settings:normal;text-indent:0;text-align:start;text-decoration:none;text-decoration-line:none;text-decoration-style:solid;text-decoration-color:#000000;letter-spacing:normal;word-spacing:normal;text-transform:none;writing-mode:lr-tb;direction:ltr;text-orientation:mixed;dominant-baseline:auto;baseline-shift:baseline;text-anchor:start;white-space:normal;shape-padding:0;clip-rule:nonzero;display:inline;overflow:visible;visibility:visible;opacity:1;isolation:auto;mix-blend-mode:normal;color-interpolation:sRGB;color-interpolation-filters:linearRGB;solid-color:#000000;solid-opacity:1;vector-effect:none;fill:#c46174;fill-opacity:0;fill-rule:nonzero;stroke:none;stroke-width:0;stroke-linecap:butt;stroke-linejoin:miter;stroke-miterlimit:4;stroke-dasharray:none;stroke-dashoffset:0;stroke-opacity:1;color-rendering:auto;image-rendering:auto;shape-rendering:auto;text-rendering:auto;enable-background:accumulate"
       d="M 283.63086,-239.41211 C 146.49407,-239.41212 35.322269,-128.2403 35.322266,8.8964844 35.322257,146.03328 146.49406,257.20508 283.63086,257.20508 420.76765,257.20507 531.93946,146.03327 531.93945,8.8964844 531.93945,-128.2403 420.76764,-239.4121 283.63086,-239.41211 Z m 0,0.0312 c 137.11949,1e-5 248.27539,111.15786 248.27539,248.2773444 C 531.90626,146.01598 420.75035,257.17187 283.63086,257.17188 146.51136,257.17188 35.353507,146.01599 35.353516,8.8964844 35.353519,-128.22301 146.51136,-239.38087 283.63086,-239.38086 Z"
       id="path1175-1-3-3-6"
       inkscape:connector-curvature="0" />
    <path
       style="color:#000000;font-style:normal;font-variant:normal;font-weight:normal;font-stretch:normal;font-size:medium;line-height:normal;font-family:sans-serif;font-variant-ligatures:normal;font-variant-position:normal;font-variant-caps:normal;font-variant-numeric:normal;font-variant-alternates:normal;font-feature-settings:normal;text-indent:0;text-align:start;text-decoration:none;text-decoration-line:none;text-decoration-style:solid;text-decoration-color:#000000;letter-spacing:normal;word-spacing:normal;text-transform:none;writing-mode:lr-tb;direction:ltr;text-orientation:mixed;dominant-baseline:auto;baseline-shift:baseline;text-anchor:start;white-space:normal;shape-padding:0;clip-rule:nonzero;display:inline;overflow:visible;visibility:visible;opacity:1;isolation:auto;mix-blend-mode:normal;color-interpolation:sRGB;color-interpolation-filters:linearRGB;solid-color:#000000;solid-opacity:1;vector-effect:none;fill:#c46174;fill-opacity:0;fill-rule:nonzero;stroke:none;stroke-width:0;stroke-linecap:butt;stroke-linejoin:miter;stroke-miterlimit:4;stroke-dasharray:none;stroke-dashoffset:0;stroke-opacity:1;color-rendering:auto;image-rendering:auto;shape-rendering:auto;text-rendering:auto;enable-background:accumulate"
       d="M 283.63086,-239.41211 C 146.49407,-239.41212 35.322269,-128.2403 35.322266,8.8964844 35.322257,146.03328 146.49406,257.20508 283.63086,257.20508 420.76765,257.20507 531.93946,146.03327 531.93945,8.8964844 531.93945,-128.2403 420.76764,-239.4121 283.63086,-239.41211 Z m 0,0.0312 c 137.11949,1e-5 248.27539,111.15786 248.27539,248.2773444 C 531.90626,146.01598 420.75035,257.17187 283.63086,257.17188 146.51136,257.17188 35.353507,146.01599 35.353516,8.8964844 35.353519,-128.22301 146.51136,-239.38087 283.63086,-239.38086 Z"
       id="path1175-1-3-3-6-7"
       inkscape:connector-curvature="0" />
  </defs>
  <sodipodi:namedview
     id="base"
     pagecolor="#ffffff"
     bordercolor="#666666"
     borderopacity="1.0"
     inkscape:pageopacity="0.0"
     inkscape:pageshadow="2"
     inkscape:zoom="7.9195959"
     inkscape:cx="78.571429"
     inkscape:cy="74.285714"
     inkscape:document-units="mm"
     inkscape:current-layer="layer1"
     showgrid="false"
     inkscape:window-width="3840"
     inkscape:window-height="2031"
     inkscape:window-x="0"
     inkscape:window-y="55"
     inkscape:window-maximized="1" />
  <metadata
     id="metadata1145">
    <rdf:RDF>
      <cc:Work
         rdf:about="">
        <dc:format>image/svg+xml</dc:format>
        <dc:type
           rdf:resource="http://purl.org/dc/dcmitype/StillImage" />
        <dc:title></dc:title>
      </cc:Work>
    </rdf:RDF>
  </metadata>
  <g
     inkscape:label="Layer 1"
     inkscape:groupmode="layer"
     id="layer1"
     transform="translate(0,-260)">
    <rect
       style="opacity:1;fill:#ffffff;fill-opacity:0.99326599;stroke:#c46174;stroke-width:0;stroke-miterlimit:4;stroke-dasharray:none;stroke-opacity:0"
       id="rect1834"
       width="37"
       height="36.999996"
       x="-1.3322676e-15"
       y="260" />
    <g
       id="g902"
       transform="matrix(0.05578222,0,0,-0.05578222,-5.1874509,292.88824)">
      <text
         transform="matrix(-0.63264132,0.77444493,0.77444493,0.63264132,586.9742,46.471376)"
         y="215.76859"
         x="63.03352"
         id="text1258"
         style="font-style:normal;font-variant:normal;font-weight:normal;font-stretch:normal;font-size:69.05630493px;line-height:1.25;font-family:'DK Prince Frog';-inkscape-font-specification:'DK Prince Frog, Normal';font-variant-ligatures:normal;font-variant-caps:normal;font-variant-numeric:normal;font-feature-settings:normal;text-align:start;letter-spacing:0px;word-spacing:0px;writing-mode:lr-tb;text-anchor:start;fill:#3b6e9a;fill-opacity:1;stroke:none;stroke-width:1.07305825"
         xml:space="preserve"><textPath
           id="textPath1319"
           xlink:href="#path1175-1-3-3-6-7"><tspan
   id="tspan1256"
   style="font-style:normal;font-variant:normal;font-weight:normal;font-stretch:normal;font-size:69.05630493px;font-family:'DK Prince Frog';-inkscape-font-specification:'DK Prince Frog, Normal';font-variant-ligatures:normal;font-variant-caps:normal;font-variant-numeric:normal;font-feature-settings:normal;text-align:start;writing-mode:lr-tb;text-anchor:start;fill:#3b6e9a;fill-opacity:1;stroke-width:1.07305825">ist ganz schön groß</tspan></textPath></text>
      <g
         transform="rotate(-5.617302,59.92527,27.706089)"
         id="g1082">
        <g
           id="g912"
           style="fill:#2aed26;fill-opacity:1">
          <g
             id="g30"
             transform="translate(487.95,212.66)"
             style="fill:#2aed26;fill-opacity:1">
            <path
               id="path32"
               style="fill:#2aed26;fill-opacity:1"
               inkscape:connector-curvature="0"
               d="m 0,0 c 0,0 -0.919,26.656 -1.379,39.064 -0.46,12.409 4.136,20.682 -1.839,32.171 -5.974,11.49 -1.379,20.682 -6.893,21.141 -5.515,0.459 -22.979,3.677 -32.63,0 -9.652,-3.677 -30.793,12.409 -31.252,22.979 -0.459,10.57 -3.676,18.383 -3.676,18.383 0,0 11.949,19.262 15.166,18.593 3.217,-0.669 3.677,12.199 5.975,13.118 2.298,0.92 26.655,7.354 33.549,7.354 6.893,0 1.838,-7.354 1.838,-7.354 L 0,157.639 l 3.677,8.273 18.383,-5.515 c 0,0 -0.459,11.03 -4.596,12.409 -4.137,1.378 -21.601,9.651 -21.601,9.651 0,0 3.678,-6.894 1.839,-8.732 -1.839,-1.839 -7.813,8.732 -7.813,8.732 l -13.327,5.055 c 0,0 -9.192,-1.379 -14.248,-3.217 -5.055,-1.838 -7.353,-10.57 -7.353,-10.57 0,0 -9.191,-4.596 -15.166,-3.217 -5.975,1.378 -4.137,12.868 -4.137,12.868 0,0 11.03,0.919 11.949,4.136 0.919,3.217 -7.812,9.192 -7.812,9.192 l 6.893,3.217 6.434,11.232 10.111,-1.122 3.217,11.95 -0.807,11.806 c 0,0 67.293,-31.638 88.51,-83.995 l -10.953,6.928 4.596,-10.111 1.838,1.379 5.515,-10.11 v -8.273 l -2.757,-12.71 c 0,0 -17.515,29.546 -25.737,37.068 0,0 11.957,-27.574 26.197,-41.822 l 4.595,4.754 V 101.571 94.677 L 53.311,85.025 48.256,69.859 47.336,57.91 V 43.663 L 40.442,36.77 33.549,31.714 V 25.739 L 26.655,16.536 17.004,6.426 7.353,-0.009 H 0 Z" />
          </g>
          <g
             id="g34"
             transform="translate(355.05,160.34)"
             style="fill:#2aed26;fill-opacity:1">
            <path
               id="path36"
               style="fill:#2aed26;fill-opacity:1"
               inkscape:connector-curvature="0"
               d="m 0,0 -9.191,11.949 1.379,6.435 h 5.974 L -3.112,24.973 -1.378,33.55 0,39.983 5.199,45.39 c 0,0 11.807,4.705 10.428,21.25 0,0 10.109,13.788 7.812,21.14 -2.298,7.353 -16.145,6.894 -16.145,6.894 l -22.919,9.651 c 0,0 -1.838,9.652 -8.272,10.571 -6.435,0.918 -8.273,-3.677 -11.031,0 -2.758,3.676 -6.576,9.194 -13.858,9.652 -7.282,0.458 -16.474,6.432 -16.474,6.432 0,0 -1.379,5.055 -9.191,3.217 0,0 -5.056,5.056 -2.758,15.167 0,0 -0.459,5.515 -7.354,3.217 0,0 -5.514,5.975 -7.353,5.975 -1.838,0 -4.596,17.464 3.678,25.277 0,0 7.812,9.191 16.545,3.676 0,0 -0.461,-8.732 0.918,-12.868 1.379,-4.136 4.136,5.975 4.136,5.975 l 0.46,12.868 c 0,0 5.975,2.758 11.031,7.353 5.054,4.596 3.216,10.571 10.11,15.166 6.893,4.596 8.272,0 8.272,0 l 0.459,7.813 h 6.435 l 15.626,6.894 c 0,0 -7.354,-0.46 -10.111,3.677 l 19.761,10.57 v 5.974 l -1.355,12.409 -4.619,-5.515 -0.918,5.515 -8.733,1.121 h -3.216 l -7.354,-3.419 -0.46,-4.596 -8.272,-3.676 -4.137,4.136 3.218,4.136 3.216,3.419 8.566,11.597 c 0,0 -56.809,-31.864 -73.36,-88.241 0,0 -0.925,-17.772 -1.384,-24.206 -0.46,-6.434 5.054,-12.408 5.054,-12.408 h 5.056 l 1.838,-4.596 4.136,-1.379 2.299,-1.379 1.378,-3.583 1.838,-6.528 4.137,-0.92 2.297,-4.135 2.758,-0.46 -0.919,3.676 h 3.677 l 1.378,-3.216 -4.136,-3.217 -1.379,-3.218 -0.459,-7.352 0.459,-5.516 0.46,-5.055 -4.136,-2.298 0.918,-5.055 0.461,-3.217 v -5.056 l -2.299,-0.919 16.545,-22.519 5.056,-1.839 3.216,-0.459 5.056,-1.839 4.137,-7.812 c 0,0 13.327,-29.415 15.166,-33.55 C -27.574,15.629 -8.271,-1.376 0,0.003" />
          </g>
        </g>
        <g
           id="g1056"
           transform="matrix(0.66583912,0,0,-0.66583912,224.40388,461.93974)"
           style="fill:#3b6e9a;fill-opacity:1">
          <g
             id="g999"
             style="fill:#3b6e9a;fill-opacity:1">
            <g
               id="g997"
               style="fill:#3b6e9a;fill-opacity:1">
              <path
                 id="path995"
                 d="M 256,0 C 114.62,0 0,114.62 0,256 0,397.38 114.62,512 256,512 397.38,512 512,397.38 512,256 512,114.62 397.38,0 256,0 Z m -83.789,41.609 c -24.934,27.119 -44.68,66.125 -56.755,111.992 H 49.749 c 25.43,-50.86 69.12,-91.077 122.462,-111.992 z M 25.6,256 c 0,-26.999 5.077,-52.727 13.662,-76.8 h 70.494 c -4.608,24.294 -7.356,49.963 -7.356,76.8 0,26.837 2.748,52.506 7.347,76.8 H 39.262 C 30.677,308.727 25.6,283 25.6,256 Z m 24.149,102.4 h 65.707 c 12.083,45.867 31.821,84.872 56.755,111.991 C 118.869,449.476 75.179,409.259 49.749,358.4 Z M 243.2,485.188 C 199.39,476.936 161.323,426.948 141.841,358.4 H 243.2 Z m 0,-152.388 H 135.74 C 130.816,308.634 128,282.803 128,256 c 0,-26.803 2.816,-52.634 7.74,-76.8 H 243.2 Z m 0,-179.2 H 141.841 C 161.323,85.052 199.39,35.063 243.2,26.812 Z m 219.051,0 H 396.544 C 384.461,107.733 364.723,68.727 339.789,41.608 393.131,62.524 436.821,102.741 462.251,153.6 Z M 268.8,26.812 c 43.81,8.252 81.877,58.24 101.359,126.788 H 268.8 Z m 0,152.388 h 107.46 c 4.924,24.166 7.74,49.997 7.74,76.8 0,26.803 -2.816,52.634 -7.74,76.8 H 268.8 Z m 0,305.988 V 358.4 H 370.159 C 350.677,426.948 312.61,476.937 268.8,485.188 Z m 70.989,-14.797 c 24.934,-27.127 44.672,-66.125 56.755,-111.991 h 65.707 c -25.43,50.859 -69.12,91.076 -122.462,111.991 z M 402.244,332.8 c 4.608,-24.294 7.356,-49.963 7.356,-76.8 0,-26.837 -2.748,-52.506 -7.347,-76.8 h 70.494 c 8.576,24.073 13.653,49.801 13.653,76.8 0,27 -5.077,52.727 -13.662,76.8 z"
                 inkscape:connector-curvature="0"
                 style="fill:#3b6e9a;fill-opacity:1" />
            </g>
          </g>
          <g
             id="g1001"
             style="fill:#3b6e9a;fill-opacity:1" />
          <g
             id="g1003"
             style="fill:#3b6e9a;fill-opacity:1" />
          <g
             id="g1005"
             style="fill:#3b6e9a;fill-opacity:1" />
          <g
             id="g1007"
             style="fill:#3b6e9a;fill-opacity:1" />
          <g
             id="g1009"
             style="fill:#3b6e9a;fill-opacity:1" />
          <g
             id="g1011"
             style="fill:#3b6e9a;fill-opacity:1" />
          <g
             id="g1013"
             style="fill:#3b6e9a;fill-opacity:1" />
          <g
             id="g1015"
             style="fill:#3b6e9a;fill-opacity:1" />
          <g
             id="g1017"
             style="fill:#3b6e9a;fill-opacity:1" />
          <g
             id="g1019"
             style="fill:#3b6e9a;fill-opacity:1" />
          <g
             id="g1021"
             style="fill:#3b6e9a;fill-opacity:1" />
          <g
             id="g1023"
             style="fill:#3b6e9a;fill-opacity:1" />
          <g
             id="g1025"
             style="fill:#3b6e9a;fill-opacity:1" />
          <g
             id="g1027"
             style="fill:#3b6e9a;fill-opacity:1" />
          <g
             id="g1029"
             style="fill:#3b6e9a;fill-opacity:1" />
        </g>
      </g>
      <g
         id="text1258-7"
         style="font-style:normal;font-variant:normal;font-weight:normal;font-stretch:normal;font-size:78.18360138px;line-height:1.25;font-family:'DK Prince Frog';-inkscape-font-specification:'DK Prince Frog, Normal';font-variant-ligatures:normal;font-variant-caps:normal;font-variant-numeric:normal;font-feature-settings:normal;text-align:start;letter-spacing:0px;word-spacing:0px;writing-mode:lr-tb;text-anchor:start;fill:#3b6e9a;fill-opacity:1;stroke:none;stroke-width:1.21488619"
         transform="matrix(0.74743544,-0.66433445,-0.66433445,-0.74743544,274.55748,713.36223)"
         aria-label="Das Internet">
        <path
           inkscape:connector-curvature="0"
           id="path1326"
           style="font-style:normal;font-variant:normal;font-weight:normal;font-stretch:normal;font-size:78.18360138px;font-family:'DK Prince Frog';-inkscape-font-specification:'DK Prince Frog, Normal';font-variant-ligatures:normal;font-variant-caps:normal;font-variant-numeric:normal;font-feature-settings:normal;text-align:start;writing-mode:lr-tb;text-anchor:start;fill:#3b6e9a;fill-opacity:1;stroke-width:1.21488619"
           d="m 225.46652,251.9387 0.0813,-0.93468 c 1.70626,-19.62824 -11.37261,-26.25867 -25.54857,-27.49097 -16.43476,-1.42866 -32.8795,3.57705 -34.39618,21.02437 -0.14896,1.71358 -0.22003,3.43393 -0.071,5.33037 z m -49.07081,-11.4857 0.0339,-0.38945 c 0.54167,-6.23119 11.10751,-8.6088 19.75329,-7.85723 9.26889,0.80573 18.48367,4.0396 18.71071,9.55283 z" />
        <path
           inkscape:connector-curvature="0"
           id="path1328"
           style="font-style:normal;font-variant:normal;font-weight:normal;font-stretch:normal;font-size:78.18360138px;font-family:'DK Prince Frog';-inkscape-font-specification:'DK Prince Frog, Normal';font-variant-ligatures:normal;font-variant-caps:normal;font-variant-numeric:normal;font-feature-settings:normal;text-align:start;writing-mode:lr-tb;text-anchor:start;fill:#3b6e9a;fill-opacity:1;stroke-width:1.21488619"
           d="m 227.40813,198.8168 4.54852,0.2263 -1.08722,-7.23847 c -18.17816,-0.65849 -33.0423,-8.69125 -37.05977,6.58231 -0.89498,3.40252 -1.44773,6.73338 -1.58266,10.01245 l 7.79983,1.08151 c 0.0115,-4.03914 0.3494,-6.8606 0.84661,-8.75089 0.73587,-2.79763 1.90176,-3.54193 2.96033,-3.26349 0.52928,0.13922 0.69645,0.42572 0.74429,1.16589 1.00408,10.93539 0.14117,16.36743 9.81947,18.91315 8.77095,2.30705 13.87618,-1.11984 15.48714,-7.24438 0.83531,-3.17569 0.48467,-7.06754 -2.47654,-11.48438 z m -5.80204,-0.071 c 1.31765,3.90368 1.78762,7.34186 1.35008,9.00532 -0.81543,3.10008 -3.92339,2.92932 -6.19174,2.33267 l -0.45367,-0.11933 c -2.17285,-0.65238 -4.72394,-2.94026 -4.84039,-12.02531 z" />
        <path
           inkscape:connector-curvature="0"
           id="path1330"
           style="font-style:normal;font-variant:normal;font-weight:normal;font-stretch:normal;font-size:78.18360138px;font-family:'DK Prince Frog';-inkscape-font-specification:'DK Prince Frog, Normal';font-variant-ligatures:normal;font-variant-caps:normal;font-variant-numeric:normal;font-feature-settings:normal;text-align:start;writing-mode:lr-tb;text-anchor:start;fill:#3b6e9a;fill-opacity:1;stroke-width:1.21488619"
           d="m 234.22902,162.09071 c -8.29188,-3.6738 -15.82582,9.6634 -18.97102,8.26989 -1.42963,-0.63341 -1.28845,-2.11011 -0.56002,-3.75419 1.14014,-2.57334 3.82757,-5.74385 4.27096,-6.74459 l -5.7918,-4.10537 c -1.9192,1.62958 -3.86103,4.2753 -5.1912,7.27753 -2.66034,6.00447 -2.95364,13.22871 4.05158,16.33244 7.82318,3.38062 15.14178,-10.82161 19.64513,-8.82636 2.28742,1.01346 2.53532,2.57703 1.83856,4.14963 -1.0768,2.43038 -4.53514,4.83176 -6.7493,5.39001 l 5.46963,6.9556 c 3.81665,-1.47301 6.4172,-4.25444 7.87406,-7.5426 2.9137,-6.57633 0.40382,-14.61497 -5.88658,-17.40199 z" />
        <path
           inkscape:connector-curvature="0"
           id="path1332"
           style="font-style:normal;font-variant:normal;font-weight:normal;font-stretch:normal;font-size:78.18360138px;font-family:'DK Prince Frog';-inkscape-font-specification:'DK Prince Frog, Normal';font-variant-ligatures:normal;font-variant-caps:normal;font-variant-numeric:normal;font-feature-settings:normal;text-align:start;writing-mode:lr-tb;text-anchor:start;fill:#3b6e9a;fill-opacity:1;stroke-width:1.21488619"
           d="m 261.00937,144.10098 5.32017,-8.12868 -45.65984,-33.20179 -6.14894,8.19085 z" />
        <path
           inkscape:connector-curvature="0"
           id="path1334"
           style="font-style:normal;font-variant:normal;font-weight:normal;font-stretch:normal;font-size:78.18360138px;font-family:'DK Prince Frog';-inkscape-font-specification:'DK Prince Frog, Normal';font-variant-ligatures:normal;font-variant-caps:normal;font-variant-numeric:normal;font-feature-settings:normal;text-align:start;writing-mode:lr-tb;text-anchor:start;fill:#3b6e9a;fill-opacity:1;stroke-width:1.21488619"
           d="m 240.99249,105.0688 26.06441,24.32584 5.6591,-5.30141 -13.46904,-12.95266 c -1.54301,-1.78201 -2.91741,-5.44913 -1.19838,-7.2669 0.21488,-0.22722 0.43285,-0.34392 0.75825,-0.57422 1.62703,-1.15154 4.21848,0.5459 7.05875,3.23189 l 12.61388,12.03634 c 3.94006,-3.48364 5.33986,-4.85006 5.82334,-5.36131 0.21488,-0.22722 0.15807,-0.28094 0.15807,-0.28094 -4.91303,-5.61463 -7.98669,-8.73656 -12.75834,-13.249025 -6.36221,-6.016625 -13.89208,-8.295171 -18.56571,-3.353103 -1.343,1.420135 -2.44643,3.49725 -3.2535,6.285068 l -3.333,-2.50632 z" />
        <path
           inkscape:connector-curvature="0"
           id="path1336"
           style="font-style:normal;font-variant:normal;font-weight:normal;font-stretch:normal;font-size:78.18360138px;font-family:'DK Prince Frog';-inkscape-font-specification:'DK Prince Frog, Normal';font-variant-ligatures:normal;font-variant-caps:normal;font-variant-numeric:normal;font-feature-settings:normal;text-align:start;writing-mode:lr-tb;text-anchor:start;fill:#3b6e9a;fill-opacity:1;stroke-width:1.21488619"
           d="m 276.68354,87.034922 16.93462,19.684448 6.54359,-5.83195 -16.06594,-19.48434 3.64899,-3.071854 -5.87436,-7.214813 -3.55025,3.193111 -11.50454,-13.015289 -6.98787,5.286291 11.84313,14.050284 -4.59652,3.641696 5.172,6.476005 z" />
        <path
           inkscape:connector-curvature="0"
           id="path1338"
           style="font-style:normal;font-variant:normal;font-weight:normal;font-stretch:normal;font-size:78.18360138px;font-family:'DK Prince Frog';-inkscape-font-specification:'DK Prince Frog, Normal';font-variant-ligatures:normal;font-variant-caps:normal;font-variant-numeric:normal;font-feature-settings:normal;text-align:start;writing-mode:lr-tb;text-anchor:start;fill:#3b6e9a;fill-opacity:1;stroke-width:1.21488619"
           d="m 327.83131,76.111652 -6.77417,-3.277894 c -0.89391,3.48095 -3.46153,8.720113 -6.52869,10.59813 -2.00032,1.224794 -4.33545,1.004435 -6.64349,-2.166129 12.06309,-9.494739 11.80298,-14.560971 10.65574,-16.883805 l -0.69405,-1.133516 c -4.78757,-7.519571 -9.6552,-9.031226 -17.78984,-4.050398 -10.00161,6.123968 -8.39013,13.846421 -3.77674,21.380967 5.5524,9.068127 14.60732,13.974805 22.47526,9.157283 3.66726,-2.245455 7.16158,-7.318636 9.07598,-13.624638 z M 303.2812,76.29223 c -2.22638,-3.03721 -2.43051,-3.370597 -2.59382,-3.637307 -1.46975,-2.400386 1.07344,-5.882761 4.07392,-7.719951 2.20036,-1.347273 4.94643,-1.653559 6.25288,0.480118 2.04132,3.33387 -5.53263,9.529866 -7.73298,10.87714 z" />
        <path
           inkscape:connector-curvature="0"
           id="path1340"
           style="font-style:normal;font-variant:normal;font-weight:normal;font-stretch:normal;font-size:78.18360138px;font-family:'DK Prince Frog';-inkscape-font-specification:'DK Prince Frog, Normal';font-variant-ligatures:normal;font-variant-caps:normal;font-variant-numeric:normal;font-feature-settings:normal;text-align:start;writing-mode:lr-tb;text-anchor:start;fill:#3b6e9a;fill-opacity:1;stroke-width:1.21488619"
           d="m 317.68311,47.129598 17.91259,32.32199 7.50298,-3.936826 -6.78027,-11.818199 c -0.40698,-0.761655 -0.81395,-1.52331 -1.14891,-2.315417 -2.07069,-4.896659 -2.00617,-9.762493 1.90457,-11.755803 l 0.57607,-0.243611 c 1.08015,-0.456769 2.75571,-0.910668 3.83586,-1.367437 l -1.8901,-8.283611 c -1.47888,0.116065 -2.7944,0.417708 -4.01857,0.935379 -0.28804,0.121806 -0.54562,0.31562 -0.83366,0.437426 -3.6227,1.871505 -5.98005,5.330093 -7.19098,9.492305 l -3.24182,-6.863135 z" />
        <path
           inkscape:connector-curvature="0"
           id="path1342"
           style="font-style:normal;font-variant:normal;font-weight:normal;font-stretch:normal;font-size:78.18360138px;font-family:'DK Prince Frog';-inkscape-font-specification:'DK Prince Frog, Normal';font-variant-ligatures:normal;font-variant-caps:normal;font-variant-numeric:normal;font-feature-settings:normal;text-align:start;writing-mode:lr-tb;text-anchor:start;fill:#3b6e9a;fill-opacity:1;stroke-width:1.21488619"
           d="m 349.10731,33.652455 9.01087,34.494995 7.61716,-1.452311 -4.45211,-18.148425 c -0.35054,-2.330996 0.44968,-6.164577 2.87444,-6.780966 0.30309,-0.07705 0.54968,-0.05906 0.94781,-0.0796 1.99065,-0.102685 3.27229,2.717652 4.2354,6.506334 l 4.21968,16.916785 c 5.19241,-0.835923 7.10601,-1.241703 7.78797,-1.415062 0.3031,-0.07705 0.28384,-0.152823 0.28384,-0.152823 -1.14794,-7.371855 -2.07508,-11.653703 -3.6931,-18.018689 -2.15736,-8.486648 -7.30077,-14.43948 -13.89307,-12.763672 -1.89435,0.481554 -3.93768,1.646345 -6.11076,3.570148 l -1.47553,-3.90043 z" />
        <path
           inkscape:connector-curvature="0"
           id="path1344"
           style="font-style:normal;font-variant:normal;font-weight:normal;font-stretch:normal;font-size:78.18360138px;font-family:'DK Prince Frog';-inkscape-font-specification:'DK Prince Frog, Normal';font-variant-ligatures:normal;font-variant-caps:normal;font-variant-numeric:normal;font-feature-settings:normal;text-align:start;writing-mode:lr-tb;text-anchor:start;fill:#3b6e9a;fill-opacity:1;stroke-width:1.21488619"
           d="m 416.60583,54.479455 -4.65016,-5.916915 c -2.33008,2.736212 -6.93543,6.318419 -10.51553,6.660919 -2.33485,0.22337 -4.33675,-0.998843 -5.02034,-4.860473 15.00526,-3.241954 16.99353,-7.90898 16.98131,-10.49965 l -0.12658,-1.32308 c -1.00446,-8.85753 -4.71591,-12.350951 -14.21096,-11.44258 -11.67424,1.116849 -13.61306,8.763686 -12.7717,17.558279 1.01261,10.584643 6.99808,18.965651 16.18181,18.087062 4.28056,-0.409511 9.64593,-3.436103 14.13215,-8.263562 z M 394.46384,43.874161 c -0.66871,-3.705974 -0.70594,-4.095115 -0.73572,-4.406428 -0.26804,-2.801818 3.54484,-4.81594 7.04711,-5.150995 2.56833,-0.245707 5.17052,0.683456 5.40878,3.17396 0.37229,3.891413 -9.15184,6.137756 -11.72017,6.383463 z" />
        <path
           inkscape:connector-curvature="0"
           id="path1346"
           style="font-style:normal;font-variant:normal;font-weight:normal;font-stretch:normal;font-size:78.18360138px;font-family:'DK Prince Frog';-inkscape-font-specification:'DK Prince Frog, Normal';font-variant-ligatures:normal;font-variant-caps:normal;font-variant-numeric:normal;font-feature-settings:normal;text-align:start;writing-mode:lr-tb;text-anchor:start;fill:#3b6e9a;fill-opacity:1;stroke-width:1.21488619"
           d="m 424.25658,35.420867 -0.37571,25.963774 8.76525,-0.02667 0.89327,-25.237984 4.76833,0.120088 0.38666,-9.29581 -4.77483,0.03614 0.0183,-17.3710074 -8.736,-0.6763801 -0.45111,18.3702695 -5.85545,-0.321809 -0.42254,8.277052 z" />
      </g>
    </g>
  </g>
</svg>
